<svg width="82" height="82" viewBox="0 0 82 82" fill="none" xmlns="http://www.w3.org/2000/svg">
<path opacity="0.102" d="M54 0H28C12.536 0 0 12.536 0 28V54C0 69.464 12.536 82 28 82H54C69.464 82 82 69.464 82 54V28C82 12.536 69.464 0 54 0Z" fill="#FF4361"/>
<path d="M49.229 51.4561C49.3623 50.4729 49.2511 49.472 48.9051 48.5421C48.2173 47.4034 47.2314 46.4742 46.054 45.8551C45.697 45.6201 45.469 45.4771 45.235 45.3301C43.698 44.3611 42.0831 43.3431 41.5011 41.9111C40.9201 43.3421 39.301 44.3611 37.769 45.3291C37.461 45.5241 37.158 45.7141 36.948 45.8521C35.7684 46.4759 34.7839 47.4133 34.1031 48.5611C33.7608 49.4845 33.6482 50.4774 33.775 51.4541L49.229 51.4561ZM50.696 47.7151C51.2621 49.2254 51.4107 50.8604 51.1261 52.4481C51.1255 52.7099 51.021 52.9609 50.8356 53.1458C50.6502 53.3306 50.3989 53.4343 50.137 53.4341H32.862C32.6156 53.434 32.3781 53.3415 32.1965 53.1749C32.0149 53.0083 31.9023 52.7796 31.881 52.5341C31.595 50.928 31.7431 49.2747 32.31 47.7451C32.897 46.4611 33.976 45.4511 35.867 44.2081C36.194 43.9931 36.456 43.8271 36.718 43.6631C38.186 42.7371 39.747 41.7521 39.747 40.7631C39.747 39.7741 38.186 38.7921 36.718 37.8631C36.457 37.6991 36.195 37.5331 35.867 37.3181C33.904 36.0281 32.8121 34.9271 32.2411 33.5461C31.7127 31.9525 31.5873 30.2529 31.8761 28.5991C31.8792 28.339 31.9846 28.0905 32.1695 27.9075C32.3544 27.7245 32.6039 27.6216 32.864 27.6211H50.1341C50.3793 27.621 50.6157 27.7124 50.7971 27.8773C50.9785 28.0423 51.0919 28.269 51.115 28.5131C51.4143 30.1928 51.2916 31.9205 50.758 33.5411C50.188 34.9211 49.095 36.0231 47.132 37.3131C46.799 37.5321 46.5421 37.6941 46.2801 37.8591C44.8131 38.7841 43.2511 39.7691 43.2511 40.7591C43.2511 41.7491 44.814 42.7301 46.282 43.6591C46.617 43.8701 46.952 44.0821 47.131 44.2001C49.024 45.4441 50.107 46.4331 50.695 47.7081L50.696 47.7151ZM41.4961 39.6151C42.0771 38.1841 43.696 37.1661 45.229 36.1971C45.536 36.0031 45.844 35.8101 46.049 35.6751C47.2766 35.0268 48.2813 34.0249 48.933 32.7991C49.2737 31.7688 49.374 30.6741 49.226 29.5991H33.77C33.622 30.6742 33.7226 31.7689 34.0641 32.7991C34.7156 34.0246 35.7199 35.0265 36.947 35.6751C37.157 35.8121 37.46 36.0041 37.768 36.1971C39.304 37.1651 40.919 38.1841 41.5 39.6151H41.4961Z" fill="#333333"/>
<path d="M30.773 24H52.223C52.5864 24.0005 52.9461 24.0726 53.2816 24.2122C53.6171 24.3519 53.9217 24.5564 54.178 24.814C54.4356 25.0713 54.64 25.3768 54.7795 25.7131C54.919 26.0494 54.9909 26.4099 54.991 26.774C54.9904 27.138 54.918 27.4983 54.778 27.8342C54.6379 28.1702 54.433 28.4753 54.175 28.732C53.918 28.9902 53.6127 29.1951 53.2763 29.335C52.94 29.4749 52.5793 29.5469 52.215 29.547H30.773C30.4089 29.5468 30.0485 29.4747 29.7123 29.3348C29.3761 29.195 29.0708 28.9901 28.814 28.732C28.5562 28.4752 28.3515 28.1701 28.2116 27.8341C28.0718 27.4981 27.9995 27.1379 27.999 26.774C27.9994 26.4105 28.0714 26.0507 28.2109 25.7151C28.3504 25.3795 28.5546 25.0746 28.812 24.818C29.0683 24.5603 29.3729 24.3558 29.7084 24.2161C30.0439 24.0764 30.4036 24.0043 30.767 24.004L30.773 24ZM52.227 25.978H30.773C30.5626 25.9781 30.3607 26.0611 30.211 26.209C30.0633 26.3584 29.9803 26.5599 29.98 26.77C29.9797 26.8741 30 26.9772 30.0397 27.0735C30.0793 27.1697 30.1375 27.2573 30.211 27.331C30.3602 27.48 30.5622 27.5641 30.773 27.565H52.223C52.3273 27.5649 52.4306 27.5441 52.5269 27.5039C52.6231 27.4638 52.7105 27.405 52.784 27.331C52.8575 27.2573 52.9157 27.1697 52.9554 27.0735C52.995 26.9772 53.0153 26.8741 53.015 26.77C53.0146 26.6656 52.9937 26.5624 52.9534 26.4661C52.913 26.3698 52.8541 26.2825 52.78 26.209C52.6304 26.0601 52.428 25.9763 52.217 25.976L52.227 25.978Z" fill="#333333"/>
<path d="M30.7729 51.4561H52.223C52.5871 51.4562 52.9477 51.5281 53.2841 51.6678C53.6204 51.8075 53.9258 52.0121 54.1829 52.2701C54.4408 52.5267 54.6457 52.8316 54.7857 53.1674C54.9257 53.5032 54.9982 53.8632 54.999 54.2271C54.9974 54.9621 54.7047 55.6666 54.1851 56.1865C53.6654 56.7063 52.961 56.9992 52.226 57.001H30.7729C30.4088 57.0008 30.0484 56.9287 29.7122 56.7888C29.376 56.649 29.0708 56.4441 28.814 56.186C28.5566 55.9294 28.3523 55.6246 28.2128 55.289C28.0733 54.9533 28.0013 54.5935 28.001 54.23C28.0016 53.8663 28.0739 53.5063 28.2137 53.1705C28.3536 52.8347 28.5583 52.5297 28.816 52.273C29.073 52.0153 29.3783 51.8107 29.7144 51.671C30.0506 51.5313 30.411 51.4593 30.775 51.459L30.7729 51.4561ZM52.2269 53.4341H30.7729C30.562 53.4352 30.36 53.5197 30.2109 53.669C30.1374 53.7425 30.0791 53.8299 30.0395 53.926C29.9998 54.0221 29.9796 54.1251 29.9799 54.229C29.98 54.4404 30.0638 54.6432 30.213 54.7931C30.3621 54.9421 30.5641 55.0261 30.775 55.027H52.223C52.328 55.027 52.4321 55.0064 52.5291 54.9662C52.6262 54.926 52.7143 54.867 52.7886 54.7927C52.8629 54.7184 52.9218 54.6303 52.962 54.5332C53.0022 54.4361 53.0229 54.3321 53.0229 54.2271C53.0233 54.1231 53.0031 54.0201 52.9634 53.924C52.9238 53.8278 52.8655 53.7405 52.7919 53.6671C52.7185 53.5929 52.6311 53.5339 52.5349 53.4936C52.4386 53.4533 52.3353 53.4324 52.231 53.432L52.2269 53.4341Z" fill="#333333"/>
<path d="M30.7741 57C30.4099 56.9998 30.0494 56.9278 29.713 56.7881C29.3767 56.6484 29.0712 56.4439 28.8141 56.186C28.5566 55.9295 28.3522 55.6247 28.2127 55.2891C28.0732 54.9534 28.0013 54.5935 28.0011 54.23C28.0015 53.866 28.0736 53.5057 28.2135 53.1697C28.3533 52.8337 28.5581 52.5287 28.8161 52.272C29.0733 52.0142 29.3788 51.8096 29.7151 51.6699C30.0514 51.5303 30.4119 51.4583 30.7761 51.458H31.8001C31.6588 50.1976 31.8337 48.9219 32.3091 47.7461C32.8961 46.4631 33.9751 45.452 35.8661 44.209C36.1931 43.994 36.4551 43.828 36.7161 43.665C38.1841 42.739 39.7451 41.7529 39.7451 40.7649C39.7451 39.7769 38.1831 38.794 36.7161 37.865C36.4541 37.701 36.1921 37.536 35.8661 37.321C33.9031 36.031 32.8111 34.9301 32.2401 33.5491C31.7812 32.2688 31.6295 30.8987 31.7971 29.5491H30.7721C30.4079 29.5491 30.0473 29.4771 29.7109 29.3374C29.3746 29.1977 29.0691 28.9931 28.8121 28.7351C28.554 28.4786 28.3493 28.1736 28.2095 27.8376C28.0698 27.5017 27.9978 27.1414 27.9978 26.7776C27.9978 26.4137 28.0698 26.0535 28.2095 25.7175C28.3493 25.3816 28.554 25.0766 28.8121 24.8201C29.0684 24.5622 29.3732 24.3575 29.7088 24.2178C30.0445 24.0781 30.4045 24.0062 30.7681 24.0061H52.2211C52.5847 24.0063 52.9446 24.0783 53.2803 24.218C53.6159 24.3577 53.9207 24.5623 54.1771 24.8201C54.4352 25.0768 54.6401 25.3821 54.7799 25.7183C54.9197 26.0545 54.9916 26.415 54.9916 26.7791C54.9916 27.1431 54.9197 27.5037 54.7799 27.8398C54.6401 28.176 54.4352 28.4813 54.1771 28.738C53.9201 28.9961 53.6146 29.2009 53.2783 29.3406C52.9419 29.4803 52.5813 29.552 52.2171 29.552H51.2001C51.3681 30.9016 51.2167 32.2717 50.7581 33.552C50.1871 34.933 49.0951 36.034 47.1321 37.324C46.8001 37.544 46.5421 37.7049 46.2811 37.8689C44.8141 38.7939 43.2521 39.78 43.2521 40.769C43.2521 41.758 44.8151 42.7399 46.2841 43.6689C46.6181 43.8789 46.9541 44.092 47.1331 44.21C49.0261 45.455 50.1091 46.444 50.6971 47.718C51.1769 48.9025 51.3489 50.1891 51.1971 51.458H52.2221C52.9575 51.4587 53.6626 51.7515 54.1821 52.272C54.4402 52.5286 54.6451 52.8337 54.7852 53.1697C54.9252 53.5057 54.9975 53.866 54.9981 54.23C54.9968 54.9653 54.7041 55.67 54.1841 56.1899C53.6642 56.7099 52.9594 57.0026 52.2241 57.0039L30.7741 57ZM30.7741 55.021H52.2271C52.4384 55.021 52.6411 54.9375 52.791 54.7886C52.9409 54.6396 53.0258 54.4374 53.0271 54.2261C53.0275 54.122 53.0074 54.0189 52.9679 53.9226C52.9284 53.8263 52.8704 53.7389 52.7971 53.665C52.7235 53.5908 52.636 53.5318 52.5395 53.4915C52.4431 53.4511 52.3396 53.4302 52.2351 53.4299H30.7741C30.5631 53.4311 30.3611 53.5157 30.2121 53.665C30.1385 53.7387 30.0802 53.8261 30.0405 53.9224C30.0009 54.0186 29.9807 54.1219 29.9811 54.2261C29.9814 54.4371 30.0652 54.6395 30.2141 54.7891C30.3627 54.9374 30.5641 55.0208 30.7741 55.021ZM37.7691 45.3259C37.4611 45.5199 37.1581 45.7111 36.9481 45.8491C35.7684 46.4733 34.7839 47.4111 34.1031 48.5591C33.7604 49.4825 33.6479 50.4752 33.7751 51.4519H49.2301C49.3635 50.4686 49.2519 49.4678 48.9051 48.5381C48.2178 47.399 47.2318 46.4698 46.0541 45.8511C45.6971 45.6161 45.4691 45.473 45.2361 45.325C43.6981 44.356 42.0831 43.338 41.5021 41.906C40.9191 43.339 39.3001 44.3579 37.7691 45.3259ZM34.0691 32.7991C34.7213 34.0245 35.7259 35.0263 36.9531 35.675C37.1631 35.812 37.4661 36.004 37.7741 36.197C39.3101 37.166 40.9251 38.184 41.5051 39.615C42.0861 38.184 43.7051 37.166 45.2371 36.197C45.5441 36.004 45.8521 35.81 46.0571 35.675C47.2846 35.0267 48.2893 34.0248 48.9411 32.7991C49.2813 31.7687 49.3815 30.6742 49.2341 29.5991H33.7711C33.6231 30.6745 33.7233 31.7694 34.0641 32.8L34.0691 32.7991ZM30.2161 26.208C30.0686 26.3577 29.9859 26.5594 29.9859 26.7695C29.9859 26.9797 30.0686 27.1814 30.2161 27.3311C30.3655 27.4803 30.5679 27.5643 30.7791 27.5649H52.2321C52.3366 27.5649 52.44 27.5443 52.5364 27.5042C52.6329 27.464 52.7205 27.4052 52.7941 27.3311C52.8678 27.2573 52.9263 27.1698 52.9662 27.0735C53.0062 26.9771 53.0267 26.8738 53.0267 26.7695C53.0267 26.6652 53.0062 26.5619 52.9662 26.4656C52.9263 26.3692 52.8678 26.2817 52.7941 26.208C52.6445 26.0591 52.4421 25.9755 52.2311 25.9751H30.7741C30.563 25.9755 30.3607 26.0591 30.2111 26.208H30.2161Z" fill="#F55767"/>
</svg>
